<?xml version="1.0" encoding="UTF-8" standalone="no"?>
<!DOCTYPE svg PUBLIC "-//W3C//DTD SVG 1.1//EN"
 "http://www.w3.org/Graphics/SVG/1.1/DTD/svg11.dtd">
<!-- Generated by graphviz version 2.30.1 (20130221.2233)
 -->
<!-- Title: G Pages: 1 -->
<svg width="756pt" height="546pt"
 viewBox="0.00 0.00 756.00 546.00" xmlns="http://www.w3.org/2000/svg" xmlns:xlink="http://www.w3.org/1999/xlink">
<g id="graph0" class="graph" transform="scale(1 1) rotate(0) translate(4 542)">
<title>G</title>
<polygon fill="white" stroke="white" points="-4,5 -4,-542 753,-542 753,5 -4,5"/>
<g id="clust1" class="cluster"><title>cluster_Global</title>
<path fill="none" stroke="gray" d="M20,-98C20,-98 728,-98 728,-98 734,-98 740,-104 740,-110 740,-110 740,-518 740,-518 740,-524 734,-530 728,-530 728,-530 20,-530 20,-530 14,-530 8,-524 8,-518 8,-518 8,-110 8,-110 8,-104 14,-98 20,-98"/>
<text text-anchor="middle" x="374" y="-517.2" font-family="Times,serif" font-size="11.00" fill="gray">\</text>
</g>
<g id="clust2" class="cluster"><title>cluster_\Shmock</title>
<path fill="none" stroke="gray" d="M28,-106C28,-106 720,-106 720,-106 726,-106 732,-112 732,-118 732,-118 732,-490 732,-490 732,-496 726,-502 720,-502 720,-502 28,-502 28,-502 22,-502 16,-496 16,-490 16,-490 16,-118 16,-118 16,-112 22,-106 28,-106"/>
<text text-anchor="middle" x="374" y="-489.2" font-family="Times,serif" font-size="11.00" fill="gray">Shmock</text>
</g>
<!-- \\Shmock\\Policy -->
<g id="node1" class="node"><title>\\Shmock\\Policy</title>
<polygon fill="none" stroke="black" points="689.5,-474 626.5,-474 626.5,-438 689.5,-438 689.5,-474"/>
<text text-anchor="start" x="635" y="-459.7" font-family="Times,serif" font-size="11.00">«abstract»</text>
<text text-anchor="start" x="643.5" y="-448.7" font-family="Times,serif" font-size="11.00">Policy</text>
</g>
<!-- \\Shmock\\Shmock -->
<g id="node2" class="node"><title>\\Shmock\\Shmock</title>
<polygon fill="none" stroke="black" points="685,-420 631,-420 631,-384 685,-384 685,-420"/>
<text text-anchor="middle" x="658" y="-399.2" font-family="Times,serif" font-size="11.00">Shmock</text>
</g>
<!-- \\Shmock\\Shmock_Instance -->
<g id="node3" class="node"><title>\\Shmock\\Shmock_Instance</title>
<polygon fill="none" stroke="black" points="119.5,-366 24.5,-366 24.5,-330 119.5,-330 119.5,-366"/>
<text text-anchor="middle" x="72" y="-345.2" font-family="Times,serif" font-size="11.00">Shmock_Instance</text>
</g>
<!-- \\Shmock\\Shmock_Class -->
<g id="node4" class="node"><title>\\Shmock\\Shmock_Class</title>
<polygon fill="none" stroke="black" points="397,-366 315,-366 315,-330 397,-330 397,-366"/>
<text text-anchor="middle" x="356" y="-345.2" font-family="Times,serif" font-size="11.00">Shmock_Class</text>
</g>
<!-- \\Shmock\\Shmock_Class&#45;&gt;\\Shmock\\Shmock_Instance -->
<g id="edge1" class="edge"><title>\\Shmock\\Shmock_Class&#45;&gt;\\Shmock\\Shmock_Instance</title>
<path fill="none" stroke="black" d="M314.896,-348C266.468,-348 184.695,-348 129.796,-348"/>
<polygon fill="none" stroke="black" points="129.533,-344.5 119.533,-348 129.533,-351.5 129.533,-344.5"/>
</g>
<!-- \\Shmock\\Shmock_Instance_Class -->
<g id="node5" class="node"><title>\\Shmock\\Shmock_Instance_Class</title>
<polygon fill="none" stroke="black" points="720,-366 596,-366 596,-330 720,-330 720,-366"/>
<text text-anchor="middle" x="658" y="-345.2" font-family="Times,serif" font-size="11.00">Shmock_Instance_Class</text>
</g>
<!-- \\Shmock\\Shmock_Instance_Class&#45;&gt;\\Shmock\\Shmock_Class -->
<g id="edge2" class="edge"><title>\\Shmock\\Shmock_Instance_Class&#45;&gt;\\Shmock\\Shmock_Class</title>
<path fill="none" stroke="black" d="M595.929,-348C540.473,-348 459.636,-348 407.678,-348"/>
<polygon fill="none" stroke="black" points="407.368,-344.5 397.368,-348 407.368,-351.5 407.368,-344.5"/>
</g>
<!-- \\Shmock\\Shmock_PHPUnit_Spec -->
<g id="node6" class="node"><title>\\Shmock\\Shmock_PHPUnit_Spec</title>
<polygon fill="none" stroke="black" points="720.5,-312 595.5,-312 595.5,-276 720.5,-276 720.5,-312"/>
<text text-anchor="middle" x="658" y="-291.2" font-family="Times,serif" font-size="11.00">Shmock_PHPUnit_Spec</text>
</g>
<!-- \\Shmock\\Shmock_Closure_Invoker -->
<g id="node7" class="node"><title>\\Shmock\\Shmock_Closure_Invoker</title>
<polygon fill="none" stroke="black" points="724,-258 592,-258 592,-222 724,-222 724,-258"/>
<text text-anchor="middle" x="658" y="-237.2" font-family="Times,serif" font-size="11.00">Shmock_Closure_Invoker</text>
</g>
<!-- \\PHPUnit_Framework_MockObject_Stub -->
<g id="node10" class="node"><title>\\PHPUnit_Framework_MockObject_Stub</title>
<ellipse fill="none" stroke="black" cx="356" cy="-72" rx="163.571" ry="18"/>
<text text-anchor="middle" x="356" y="-68.3" font-family="Times,serif" font-size="14.00" fill="gray">\PHPUnit_Framework_MockObject_Stub</text>
</g>
<!-- \\Shmock\\Shmock_Closure_Invoker&#45;&gt;\\PHPUnit_Framework_MockObject_Stub -->
<g id="edge3" class="edge"><title>\\Shmock\\Shmock_Closure_Invoker&#45;&gt;\\PHPUnit_Framework_MockObject_Stub</title>
<path fill="none" stroke="black" stroke-dasharray="1,5" d="M604.941,-221.828C600.342,-219.218 595.943,-216.285 592,-213 546.819,-175.365 568.904,-134.652 520,-102 511.022,-96.006 501.176,-91.1245 490.907,-87.1582"/>
<polygon fill="none" stroke="black" points="491.966,-83.82 481.371,-83.7673 489.62,-90.4154 491.966,-83.82"/>
</g>
<!-- \\Shmock\\Shmock_Exception -->
<g id="node8" class="node"><title>\\Shmock\\Shmock_Exception</title>
<polygon fill="none" stroke="black" points="709.5,-204 606.5,-204 606.5,-168 709.5,-168 709.5,-204"/>
<text text-anchor="middle" x="658" y="-183.2" font-family="Times,serif" font-size="11.00">Shmock_Exception</text>
</g>
<!-- \\Exception -->
<g id="node11" class="node"><title>\\Exception</title>
<ellipse fill="none" stroke="black" cx="356" cy="-18" rx="50.0912" ry="18"/>
<text text-anchor="middle" x="356" y="-14.3" font-family="Times,serif" font-size="14.00" fill="gray">\Exception</text>
</g>
<!-- \\Shmock\\Shmock_Exception&#45;&gt;\\Exception -->
<g id="edge4" class="edge"><title>\\Shmock\\Shmock_Exception&#45;&gt;\\Exception</title>
<path fill="none" stroke="black" d="M606.216,-168.617C601.149,-165.817 596.297,-162.624 592,-159 546.189,-120.368 569.934,-78.1318 520,-45 489.458,-24.7353 448.795,-17.9737 415.724,-16.2841"/>
<polygon fill="none" stroke="black" points="415.847,-12.7863 405.724,-15.9132 415.588,-19.7815 415.847,-12.7863"/>
</g>
<!-- \\Shmock\\Shmockers -->
<g id="node9" class="node"><title>\\Shmock\\Shmockers</title>
<polygon fill="none" stroke="black" points="690.5,-150 625.5,-150 625.5,-114 690.5,-114 690.5,-150"/>
<text text-anchor="middle" x="658" y="-129.2" font-family="Times,serif" font-size="11.00">Shmockers</text>
</g>
</g>
</svg>
