<?xml version="1.0" encoding="UTF-8" standalone="no"?>
<!DOCTYPE svg PUBLIC "-//W3C//DTD SVG 1.1//EN"
 "http://www.w3.org/Graphics/SVG/1.1/DTD/svg11.dtd">
<!-- Generated by graphviz version 2.30.1 (20130221.2233)
 -->
<!-- Title: G Pages: 1 -->
<svg width="756pt" height="546pt"
 viewBox="0.00 0.00 756.00 546.00" xmlns="http://www.w3.org/2000/svg" xmlns:xlink="http://www.w3.org/1999/xlink">
<g id="graph0" class="graph" transform="scale(1 1) rotate(0) translate(4 542)">
<title>G</title>
<polygon fill="white" stroke="white" points="-4,5 -4,-542 753,-542 753,5 -4,5"/>
<g id="clust1" class="cluster"><title>cluster_Global</title>
<path fill="none" stroke="gray" d="M20,-98C20,-98 728,-98 728,-98 734,-98 740,-104 740,-110 740,-110 740,-518 740,-518 740,-524 734,-530 728,-530 728,-530 20,-530 20,-530 14,-530 8,-524 8,-518 8,-518 8,-110 8,-110 8,-104 14,-98 20,-98"/>
<text text-anchor="middle" x="374" y="-517.2" font-family="Times,serif" font-size="11.00" fill="gray">\</text>
</g>
<g id="clust2" class="cluster"><title>cluster_\Shmock</title>
<path fill="none" stroke="gray" d="M28,-106C28,-106 720,-106 720,-106 726,-106 732,-112 732,-118 732,-118 732,-490 732,-490 732,-496 726,-502 720,-502 720,-502 28,-502 28,-502 22,-502 16,-496 16,-490 16,-490 16,-118 16,-118 16,-112 22,-106 28,-106"/>
<text text-anchor="middle" x="374" y="-489.2" font-family="Times,serif" font-size="11.00" fill="gray">Shmock</text>
</g>
<!-- \\Shmock\\Policy -->
<g id="node1" class="node"><title>\\Shmock\\Policy</title>
<polygon fill="none" stroke="black" points="689.5,-474 626.5,-474 626.5,-438 689.5,-438 689.5,-474"/>
<text text-anchor="start" x="635" y="-459.7" font-family="Times,serif" font-size="11.00">«abstract»</text>
<text text-anchor="start" x="643.5" y="-448.7" font-family="Times,serif" font-size="11.00">Policy</text>
</g>
<!-- \\Shmock\\Shmock -->
<g id="node2" class="node"><title>\\Shmock\\Shmock</title>
<polygon fill="none" stroke="black" points="685,-420 631,-420 631,-384 685,-384 685,-420"/>
<text text-anchor="middle" x="658" y="-399.2" font-family="Times,serif" font-size="11.00">Shmock</text>
</g>
<!-- \\Shmock\\Shmock_Instance -->
<g id="node3" class="node"><title>\\Shmock\\Shmock_Instance</title>
<polygon fill="none" stroke="black" points="119.5,-366 24.5,-366 24.5,-330 119.5,-330 119.5,-366"/>
<text text-anchor="middle" x="72" y="-345.2" font-family="Times,serif" font-size="11.00">Shmock_Instance</text>
</g>
<!-- \\Shmock\\Shmock_Class -->
<g id="node4" class="node"><title>\\Shmock\\Shmock_Class</title>
<polygon fill="none" stroke="black" points="397,-366 315,-366 315,-330 397,-330 397,-366"/>
<text text-anchor="middle" x="356" y="-345.2" font-family="Times,serif" font-size="11.00">Shmock_Class</text>
</g>
<!-- \\Shmock\\Shmock_Class&#45;&gt;\\Shmock\\Shmock_Instance -->
<g id="edge1" class="edge"><title>\\Shmock\\Shmock_Class&#45;&gt;\\Shmock\\Shmock_Instance</title>
<path fill="none" stroke="black" d="M314.896,-348C266.468,-348 184.695,-348 129.796,-348"/>
<polygon fill="none" stroke="black" points="129.533,-344.5 119.533,-348 129.533,-351.5 129.533,-344.5"/>
</g>
<!-- \\Shmock\\Shmock_Instance_Class -->
<g id="node5" class="node"><title>\\Shmock\\Shmock_Instance_Class</title>
<polygon fill="none" stroke="black" points="720,-366 596,-366 596,-330 720,-330 720,-366"/>
<text text-anchor="middle" x="658" y="-345.2" font-family="Times,serif" font-size="11.00">Shmock_Instance_Class</text>
</g>
<!-- \\Shmock\\Shmock_Instance_Class&#45;&gt;\\Shmock\\Shmock_Class -->
<g id="edge2" class="edge"><title>\\Shmock\\Shmock_Instance_Class&#45;&gt;\\Shmock\\Shmock_Class</title>
<path fill="none" stroke="black" d="M595.929,-348C540.473,-348 459.636,-348 407.678,-348"/>
<polygon fill="none" stroke="black" points="407.368,-344.5 397.368,-348 407.368,-351.5 407.368,-344.5"/>
</g>
<!-- \\Shmock\\Shmock_Closure_Invoker -->
<g id="node6" class="node"><title>\\Shmock\\Shmock_Closure_Invoker</title>
<polygon fill="none" stroke="black" points="724,-312 592,-312 592,-276 724,-276 724,-312"/>
<text text-anchor="middle" x="658" y="-291.2" font-family="Times,serif" font-size="11.00">Shmock_Closure_Invoker</text>
</g>
<!-- \\PHPUnit_Framework_MockObject_Stub -->
<g id="node10" class="node"><title>\\PHPUnit_Framework_MockObject_Stub</title>
<ellipse fill="none" stroke="black" cx="356" cy="-72" rx="163.571" ry="18"/>
<text text-anchor="middle" x="356" y="-68.3" font-family="Times,serif" font-size="14.00" fill="gray">\PHPUnit_Framework_MockObject_Stub</text>
</g>
<!-- \\Shmock\\Shmock_Closure_Invoker&#45;&gt;\\PHPUnit_Framework_MockObject_Stub -->
<g id="edge3" class="edge"><title>\\Shmock\\Shmock_Closure_Invoker&#45;&gt;\\PHPUnit_Framework_MockObject_Stub</title>
<path fill="none" stroke="black" stroke-dasharray="1,5" d="M603.394,-275.888C599.272,-273.289 595.4,-270.34 592,-267 534.923,-210.928 582.681,-151.728 520,-102 512.471,-96.0272 504.133,-91.1023 495.324,-87.0534"/>
<polygon fill="none" stroke="black" points="496.564,-83.7782 485.988,-83.144 493.86,-90.2349 496.564,-83.7782"/>
</g>
<!-- \\Shmock\\Shmock_Exception -->
<g id="node7" class="node"><title>\\Shmock\\Shmock_Exception</title>
<polygon fill="none" stroke="black" points="709.5,-258 606.5,-258 606.5,-222 709.5,-222 709.5,-258"/>
<text text-anchor="middle" x="658" y="-237.2" font-family="Times,serif" font-size="11.00">Shmock_Exception</text>
</g>
<!-- \\Exception -->
<g id="node11" class="node"><title>\\Exception</title>
<ellipse fill="none" stroke="black" cx="356" cy="-18" rx="50.0912" ry="18"/>
<text text-anchor="middle" x="356" y="-14.3" font-family="Times,serif" font-size="14.00" fill="gray">\Exception</text>
</g>
<!-- \\Shmock\\Shmock_Exception&#45;&gt;\\Exception -->
<g id="edge4" class="edge"><title>\\Shmock\\Shmock_Exception&#45;&gt;\\Exception</title>
<path fill="none" stroke="black" d="M606.258,-223.66C601.062,-220.651 596.171,-217.124 592,-213 534.238,-155.881 583.924,-95.1286 520,-45 490.646,-21.981 449.052,-15.3815 415.228,-14.4597"/>
<polygon fill="none" stroke="black" points="415.042,-10.9575 405.003,-14.344 414.963,-17.957 415.042,-10.9575"/>
</g>
<!-- \\Shmock\\PHPUnitSpec -->
<g id="node8" class="node"><title>\\Shmock\\PHPUnitSpec</title>
<polygon fill="none" stroke="black" points="697,-204 619,-204 619,-168 697,-168 697,-204"/>
<text text-anchor="middle" x="658" y="-183.2" font-family="Times,serif" font-size="11.00">PHPUnitSpec</text>
</g>
<!-- \\Shmock\\Shmockers -->
<g id="node9" class="node"><title>\\Shmock\\Shmockers</title>
<polygon fill="none" stroke="black" points="690.5,-150 625.5,-150 625.5,-114 690.5,-114 690.5,-150"/>
<text text-anchor="middle" x="658" y="-129.2" font-family="Times,serif" font-size="11.00">Shmockers</text>
</g>
</g>
</svg>
